<?xml version="1.0" encoding="UTF-8" standalone="no"?>
<!DOCTYPE svg PUBLIC "-//W3C//DTD SVG 1.1//EN"
 "http://www.w3.org/Graphics/SVG/1.1/DTD/svg11.dtd">
<!-- Generated by graphviz version 2.47.0 (20210316.0004)
 -->
<!-- Title: dependencies Pages: 1 -->
<svg width="2726pt" height="284pt"
 viewBox="0.00 0.00 2726.00 284.00" xmlns="http://www.w3.org/2000/svg" xmlns:xlink="http://www.w3.org/1999/xlink">
<g id="graph0" class="graph" transform="scale(1 1) rotate(0) translate(4 280)">
<title>dependencies</title>
<polygon fill="white" stroke="transparent" points="-4,4 -4,-280 2722,-280 2722,4 -4,4"/>
<text text-anchor="start" x="1338.01" y="-42.4" font-family="sans-serif" font-weight="bold" font-size="14.00">Legend</text>
<polygon fill="#ffffb3" stroke="transparent" points="1125,-10 1125,-30 1145,-30 1145,-10 1125,-10"/>
<text text-anchor="start" x="1148.63" y="-15.4" font-family="sans-serif" font-size="14.00"> &#160;Declarations</text>
<polygon fill="#8dd3c7" stroke="transparent" points="1238,-10 1238,-30 1258,-30 1258,-10 1238,-10"/>
<text text-anchor="start" x="1261.73" y="-15.4" font-family="sans-serif" font-size="14.00"> &#160;Module</text>
<polygon fill="#80b1d3" stroke="transparent" points="1324,-10 1324,-30 1344,-30 1344,-10 1324,-10"/>
<text text-anchor="start" x="1347.78" y="-15.4" font-family="sans-serif" font-size="14.00"> &#160;Bootstrap</text>
<polygon fill="#fdb462" stroke="transparent" points="1421,-10 1421,-30 1441,-30 1441,-10 1421,-10"/>
<text text-anchor="start" x="1444.67" y="-15.4" font-family="sans-serif" font-size="14.00"> &#160;Providers</text>
<polygon fill="#fb8072" stroke="transparent" points="1517,-10 1517,-30 1537,-30 1537,-10 1517,-10"/>
<text text-anchor="start" x="1540.73" y="-15.4" font-family="sans-serif" font-size="14.00"> &#160;Exports</text>
<g id="clust1" class="cluster">
<title>cluster_AdminLayoutModule</title>
<polygon fill="none" stroke="black" stroke-dasharray="1,5" points="8,-70 8,-195 1362,-195 1362,-70 8,-70"/>
</g>
<g id="clust2" class="cluster">
<title>cluster_AdminLayoutModule_declarations</title>
<polygon fill="none" stroke="black" points="16,-78 16,-130 1354,-130 1354,-78 16,-78"/>
</g>
<g id="clust16" class="cluster">
<title>cluster_AppModule</title>
<polygon fill="none" stroke="black" stroke-dasharray="1,5" points="1370,-70 1370,-268 2258,-268 2258,-70 1370,-70"/>
</g>
<g id="clust17" class="cluster">
<title>cluster_AppModule_declarations</title>
<polygon fill="none" stroke="black" points="1672,-78 1672,-130 2250,-130 2250,-78 1672,-78"/>
</g>
<g id="clust22" class="cluster">
<title>cluster_AppModule_imports</title>
<polygon fill="none" stroke="black" points="1520,-78 1520,-130 1664,-130 1664,-78 1520,-78"/>
</g>
<g id="clust24" class="cluster">
<title>cluster_AppModule_bootstrap</title>
<polygon fill="none" stroke="black" points="1751,-208 1751,-260 1875,-260 1875,-208 1751,-208"/>
</g>
<g id="clust25" class="cluster">
<title>cluster_AppModule_providers</title>
<polygon fill="none" stroke="black" points="1378,-78 1378,-130 1512,-130 1512,-78 1378,-78"/>
</g>
<g id="clust32" class="cluster">
<title>cluster_ComponentsModule</title>
<polygon fill="none" stroke="black" stroke-dasharray="1,5" points="2266,-70 2266,-268 2710,-268 2710,-70 2266,-70"/>
</g>
<g id="clust33" class="cluster">
<title>cluster_ComponentsModule_declarations</title>
<polygon fill="none" stroke="black" points="2280,-78 2280,-130 2696,-130 2696,-78 2280,-78"/>
</g>
<g id="clust38" class="cluster">
<title>cluster_ComponentsModule_exports</title>
<polygon fill="none" stroke="black" points="2274,-208 2274,-260 2702,-260 2702,-208 2274,-208"/>
</g>
<!-- ClinicComponent -->
<g id="node1" class="node">
<title>ClinicComponent</title>
<polygon fill="#ffffb3" stroke="black" points="1345.56,-122 1230.44,-122 1230.44,-86 1345.56,-86 1345.56,-122"/>
<text text-anchor="middle" x="1288" y="-99.8" font-family="Times,serif" font-size="14.00">ClinicComponent</text>
</g>
<!-- AdminLayoutModule -->
<g id="node10" class="node">
<title>AdminLayoutModule</title>
<polygon fill="#8dd3c7" stroke="black" points="746.1,-187 743.1,-191 722.1,-191 719.1,-187 607.9,-187 607.9,-151 746.1,-151 746.1,-187"/>
<text text-anchor="middle" x="677" y="-164.8" font-family="Times,serif" font-size="14.00">AdminLayoutModule</text>
</g>
<!-- ClinicComponent&#45;&gt;AdminLayoutModule -->
<g id="edge1" class="edge">
<title>ClinicComponent&#45;&gt;AdminLayoutModule</title>
<path fill="none" stroke="black" d="M1288,-122.09C1288,-145.13 1288,-182 1288,-182 1288,-182 756.2,-182 756.2,-182"/>
<polygon fill="black" stroke="black" points="756.2,-178.5 746.2,-182 756.2,-185.5 756.2,-178.5"/>
</g>
<!-- ClinicsComponent -->
<g id="node2" class="node">
<title>ClinicsComponent</title>
<polygon fill="#ffffb3" stroke="black" points="1212.5,-122 1091.5,-122 1091.5,-86 1212.5,-86 1212.5,-122"/>
<text text-anchor="middle" x="1152" y="-99.8" font-family="Times,serif" font-size="14.00">ClinicsComponent</text>
</g>
<!-- ClinicsComponent&#45;&gt;AdminLayoutModule -->
<g id="edge2" class="edge">
<title>ClinicsComponent&#45;&gt;AdminLayoutModule</title>
<path fill="none" stroke="black" d="M1152,-122.04C1152,-143.66 1152,-177 1152,-177 1152,-177 756.07,-177 756.07,-177"/>
<polygon fill="black" stroke="black" points="756.07,-173.5 746.07,-177 756.07,-180.5 756.07,-173.5"/>
</g>
<!-- DashboardComponent -->
<g id="node3" class="node">
<title>DashboardComponent</title>
<polygon fill="#ffffb3" stroke="black" points="1073.97,-122 932.03,-122 932.03,-86 1073.97,-86 1073.97,-122"/>
<text text-anchor="middle" x="1003" y="-99.8" font-family="Times,serif" font-size="14.00">DashboardComponent</text>
</g>
<!-- DashboardComponent&#45;&gt;AdminLayoutModule -->
<g id="edge3" class="edge">
<title>DashboardComponent&#45;&gt;AdminLayoutModule</title>
<path fill="none" stroke="black" d="M1003,-122.22C1003,-142.37 1003,-172 1003,-172 1003,-172 756.14,-172 756.14,-172"/>
<polygon fill="black" stroke="black" points="756.14,-168.5 746.14,-172 756.14,-175.5 756.14,-168.5"/>
</g>
<!-- MedicalsheetComponent -->
<g id="node4" class="node">
<title>MedicalsheetComponent</title>
<polygon fill="#ffffb3" stroke="black" points="913.97,-122 758.03,-122 758.03,-86 913.97,-86 913.97,-122"/>
<text text-anchor="middle" x="836" y="-99.8" font-family="Times,serif" font-size="14.00">MedicalsheetComponent</text>
</g>
<!-- MedicalsheetComponent&#45;&gt;AdminLayoutModule -->
<g id="edge4" class="edge">
<title>MedicalsheetComponent&#45;&gt;AdminLayoutModule</title>
<path fill="none" stroke="black" d="M836,-122.22C836,-140.83 836,-167 836,-167 836,-167 756.28,-167 756.28,-167"/>
<polygon fill="black" stroke="black" points="756.28,-163.5 746.28,-167 756.28,-170.5 756.28,-163.5"/>
</g>
<!-- PatientsComponent -->
<g id="node5" class="node">
<title>PatientsComponent</title>
<polygon fill="#ffffb3" stroke="black" points="739.66,-122 614.34,-122 614.34,-86 739.66,-86 739.66,-122"/>
<text text-anchor="middle" x="677" y="-99.8" font-family="Times,serif" font-size="14.00">PatientsComponent</text>
</g>
<!-- PatientsComponent&#45;&gt;AdminLayoutModule -->
<g id="edge5" class="edge">
<title>PatientsComponent&#45;&gt;AdminLayoutModule</title>
<path fill="none" stroke="black" d="M677,-122.11C677,-122.11 677,-140.99 677,-140.99"/>
<polygon fill="black" stroke="black" points="673.5,-140.99 677,-150.99 680.5,-140.99 673.5,-140.99"/>
</g>
<!-- ReportsComponent -->
<g id="node6" class="node">
<title>ReportsComponent</title>
<polygon fill="#ffffb3" stroke="black" points="596.38,-122 471.62,-122 471.62,-86 596.38,-86 596.38,-122"/>
<text text-anchor="middle" x="534" y="-99.8" font-family="Times,serif" font-size="14.00">ReportsComponent</text>
</g>
<!-- ReportsComponent&#45;&gt;AdminLayoutModule -->
<g id="edge6" class="edge">
<title>ReportsComponent&#45;&gt;AdminLayoutModule</title>
<path fill="none" stroke="black" d="M534,-122.01C534,-138.05 534,-159 534,-159 534,-159 597.59,-159 597.59,-159"/>
<polygon fill="black" stroke="black" points="597.59,-162.5 607.59,-159 597.59,-155.5 597.59,-162.5"/>
</g>
<!-- SpecialistsComponent -->
<g id="node7" class="node">
<title>SpecialistsComponent</title>
<polygon fill="#ffffb3" stroke="black" points="453.71,-122 312.29,-122 312.29,-86 453.71,-86 453.71,-122"/>
<text text-anchor="middle" x="383" y="-99.8" font-family="Times,serif" font-size="14.00">SpecialistsComponent</text>
</g>
<!-- SpecialistsComponent&#45;&gt;AdminLayoutModule -->
<g id="edge7" class="edge">
<title>SpecialistsComponent&#45;&gt;AdminLayoutModule</title>
<path fill="none" stroke="black" d="M383,-122.27C383,-140.56 383,-166 383,-166 383,-166 597.7,-166 597.7,-166"/>
<polygon fill="black" stroke="black" points="597.7,-169.5 607.7,-166 597.7,-162.5 597.7,-169.5"/>
</g>
<!-- TreatmentsComponent -->
<g id="node8" class="node">
<title>TreatmentsComponent</title>
<polygon fill="#ffffb3" stroke="black" points="294.31,-122 149.69,-122 149.69,-86 294.31,-86 294.31,-122"/>
<text text-anchor="middle" x="222" y="-99.8" font-family="Times,serif" font-size="14.00">TreatmentsComponent</text>
</g>
<!-- TreatmentsComponent&#45;&gt;AdminLayoutModule -->
<g id="edge8" class="edge">
<title>TreatmentsComponent&#45;&gt;AdminLayoutModule</title>
<path fill="none" stroke="black" d="M222,-122.13C222,-142.57 222,-173 222,-173 222,-173 597.9,-173 597.9,-173"/>
<polygon fill="black" stroke="black" points="597.9,-176.5 607.9,-173 597.9,-169.5 597.9,-176.5"/>
</g>
<!-- UserComponent -->
<g id="node9" class="node">
<title>UserComponent</title>
<polygon fill="#ffffb3" stroke="black" points="131.76,-122 24.24,-122 24.24,-86 131.76,-86 131.76,-122"/>
<text text-anchor="middle" x="78" y="-99.8" font-family="Times,serif" font-size="14.00">UserComponent</text>
</g>
<!-- UserComponent&#45;&gt;AdminLayoutModule -->
<g id="edge9" class="edge">
<title>UserComponent&#45;&gt;AdminLayoutModule</title>
<path fill="none" stroke="black" d="M78,-122.01C78,-144.49 78,-180 78,-180 78,-180 597.7,-180 597.7,-180"/>
<polygon fill="black" stroke="black" points="597.7,-183.5 607.7,-180 597.7,-176.5 597.7,-183.5"/>
</g>
<!-- AdminLayoutComponent -->
<g id="node11" class="node">
<title>AdminLayoutComponent</title>
<polygon fill="#ffffb3" stroke="black" points="2241.88,-122 2082.12,-122 2082.12,-86 2241.88,-86 2241.88,-122"/>
<text text-anchor="middle" x="2162" y="-99.8" font-family="Times,serif" font-size="14.00">AdminLayoutComponent</text>
</g>
<!-- AppModule -->
<g id="node15" class="node">
<title>AppModule</title>
<polygon fill="#8dd3c7" stroke="black" points="1854.66,-187 1851.66,-191 1830.66,-191 1827.66,-187 1771.34,-187 1771.34,-151 1854.66,-151 1854.66,-187"/>
<text text-anchor="middle" x="1813" y="-164.8" font-family="Times,serif" font-size="14.00">AppModule</text>
</g>
<!-- AdminLayoutComponent&#45;&gt;AppModule -->
<g id="edge10" class="edge">
<title>AdminLayoutComponent&#45;&gt;AppModule</title>
<path fill="none" stroke="black" d="M2162,-122.27C2162,-140.56 2162,-166 2162,-166 2162,-166 1864.75,-166 1864.75,-166"/>
<polygon fill="black" stroke="black" points="1864.75,-162.5 1854.75,-166 1864.75,-169.5 1864.75,-162.5"/>
</g>
<!-- AppComponent -->
<g id="node12" class="node">
<title>AppComponent</title>
<polygon fill="#ffffb3" stroke="black" points="2063.94,-122 1958.06,-122 1958.06,-86 2063.94,-86 2063.94,-122"/>
<text text-anchor="middle" x="2011" y="-99.8" font-family="Times,serif" font-size="14.00">AppComponent</text>
</g>
<!-- AppComponent&#45;&gt;AppModule -->
<g id="edge11" class="edge">
<title>AppComponent&#45;&gt;AppModule</title>
<path fill="none" stroke="black" d="M2011,-122.01C2011,-138.05 2011,-159 2011,-159 2011,-159 1864.99,-159 1864.99,-159"/>
<polygon fill="black" stroke="black" points="1864.99,-155.5 1854.99,-159 1864.99,-162.5 1864.99,-155.5"/>
</g>
<!-- LoginComponent -->
<g id="node13" class="node">
<title>LoginComponent</title>
<polygon fill="#ffffb3" stroke="black" points="1940.28,-122 1825.72,-122 1825.72,-86 1940.28,-86 1940.28,-122"/>
<text text-anchor="middle" x="1883" y="-99.8" font-family="Times,serif" font-size="14.00">LoginComponent</text>
</g>
<!-- LoginComponent&#45;&gt;AppModule -->
<g id="edge12" class="edge">
<title>LoginComponent&#45;&gt;AppModule</title>
<path fill="none" stroke="black" d="M1840.22,-122.11C1840.22,-122.11 1840.22,-140.99 1840.22,-140.99"/>
<polygon fill="black" stroke="black" points="1836.72,-140.99 1840.22,-150.99 1843.72,-140.99 1836.72,-140.99"/>
</g>
<!-- RegisterComponent -->
<g id="node14" class="node">
<title>RegisterComponent</title>
<polygon fill="#ffffb3" stroke="black" points="1807.98,-122 1680.02,-122 1680.02,-86 1807.98,-86 1807.98,-122"/>
<text text-anchor="middle" x="1744" y="-99.8" font-family="Times,serif" font-size="14.00">RegisterComponent</text>
</g>
<!-- RegisterComponent&#45;&gt;AppModule -->
<g id="edge13" class="edge">
<title>RegisterComponent&#45;&gt;AppModule</title>
<path fill="none" stroke="black" d="M1789.58,-122.11C1789.58,-122.11 1789.58,-140.99 1789.58,-140.99"/>
<polygon fill="black" stroke="black" points="1786.08,-140.99 1789.58,-150.99 1793.08,-140.99 1786.08,-140.99"/>
</g>
<!-- AppComponent  -->
<g id="node17" class="node">
<title>AppComponent </title>
<polygon fill="#80b1d3" stroke="black" points="1867.44,-252 1758.56,-252 1758.56,-216 1867.44,-216 1867.44,-252"/>
<text text-anchor="middle" x="1813" y="-229.8" font-family="Times,serif" font-size="14.00">AppComponent </text>
</g>
<!-- AppModule&#45;&gt;AppComponent  -->
<g id="edge15" class="edge">
<title>AppModule&#45;&gt;AppComponent </title>
<path fill="none" stroke="black" stroke-dasharray="1,5" d="M1813,-187.11C1813,-187.11 1813,-205.99 1813,-205.99"/>
<polygon fill="black" stroke="black" points="1809.5,-205.99 1813,-215.99 1816.5,-205.99 1809.5,-205.99"/>
</g>
<!-- AppRoutingModule -->
<g id="node16" class="node">
<title>AppRoutingModule</title>
<polygon fill="#8dd3c7" stroke="black" points="1656.27,-122 1653.27,-126 1632.27,-126 1629.27,-122 1527.73,-122 1527.73,-86 1656.27,-86 1656.27,-122"/>
<text text-anchor="middle" x="1592" y="-99.8" font-family="Times,serif" font-size="14.00">AppRoutingModule</text>
</g>
<!-- AppRoutingModule&#45;&gt;AppModule -->
<g id="edge14" class="edge">
<title>AppRoutingModule&#45;&gt;AppModule</title>
<path fill="none" stroke="black" d="M1592,-122.24C1592,-137.57 1592,-157 1592,-157 1592,-157 1761.17,-157 1761.17,-157"/>
<polygon fill="black" stroke="black" points="1761.17,-160.5 1771.17,-157 1761.17,-153.5 1761.17,-160.5"/>
</g>
<!-- AuthService -->
<g id="node18" class="node">
<title>AuthService</title>
<ellipse fill="#fdb462" stroke="black" cx="1445" cy="-104" rx="59.11" ry="18"/>
<text text-anchor="middle" x="1445" y="-99.8" font-family="Times,serif" font-size="14.00">AuthService</text>
</g>
<!-- AuthService&#45;&gt;AppModule -->
<g id="edge16" class="edge">
<title>AuthService&#45;&gt;AppModule</title>
<path fill="none" stroke="black" d="M1445,-122.03C1445,-139.06 1445,-162 1445,-162 1445,-162 1761.14,-162 1761.14,-162"/>
<polygon fill="black" stroke="black" points="1761.14,-165.5 1771.14,-162 1761.14,-158.5 1761.14,-165.5"/>
</g>
<!-- FooterComponent -->
<g id="node19" class="node">
<title>FooterComponent</title>
<polygon fill="#ffffb3" stroke="black" points="2687.88,-122 2570.12,-122 2570.12,-86 2687.88,-86 2687.88,-122"/>
<text text-anchor="middle" x="2629" y="-99.8" font-family="Times,serif" font-size="14.00">FooterComponent</text>
</g>
<!-- ComponentsModule -->
<g id="node22" class="node">
<title>ComponentsModule</title>
<polygon fill="#8dd3c7" stroke="black" points="2556.33,-187 2553.33,-191 2532.33,-191 2529.33,-187 2425.67,-187 2425.67,-151 2556.33,-151 2556.33,-187"/>
<text text-anchor="middle" x="2491" y="-164.8" font-family="Times,serif" font-size="14.00">ComponentsModule</text>
</g>
<!-- FooterComponent&#45;&gt;ComponentsModule -->
<g id="edge17" class="edge">
<title>FooterComponent&#45;&gt;ComponentsModule</title>
<path fill="none" stroke="black" d="M2649.4,-122.02C2649.4,-139.37 2649.4,-163 2649.4,-163 2649.4,-163 2566.34,-163 2566.34,-163"/>
<polygon fill="black" stroke="black" points="2566.34,-159.5 2556.34,-163 2566.34,-166.5 2566.34,-159.5"/>
</g>
<!-- NavbarComponent -->
<g id="node20" class="node">
<title>NavbarComponent</title>
<polygon fill="#ffffb3" stroke="black" points="2552.03,-122 2429.97,-122 2429.97,-86 2552.03,-86 2552.03,-122"/>
<text text-anchor="middle" x="2491" y="-99.8" font-family="Times,serif" font-size="14.00">NavbarComponent</text>
</g>
<!-- NavbarComponent&#45;&gt;ComponentsModule -->
<g id="edge18" class="edge">
<title>NavbarComponent&#45;&gt;ComponentsModule</title>
<path fill="none" stroke="black" d="M2491,-122.11C2491,-122.11 2491,-140.99 2491,-140.99"/>
<polygon fill="black" stroke="black" points="2487.5,-140.99 2491,-150.99 2494.5,-140.99 2487.5,-140.99"/>
</g>
<!-- SidebarComponent -->
<g id="node21" class="node">
<title>SidebarComponent</title>
<polygon fill="#ffffb3" stroke="black" points="2412.1,-122 2287.9,-122 2287.9,-86 2412.1,-86 2412.1,-122"/>
<text text-anchor="middle" x="2350" y="-99.8" font-family="Times,serif" font-size="14.00">SidebarComponent</text>
</g>
<!-- SidebarComponent&#45;&gt;ComponentsModule -->
<g id="edge19" class="edge">
<title>SidebarComponent&#45;&gt;ComponentsModule</title>
<path fill="none" stroke="black" d="M2369.18,-122.13C2369.18,-142.57 2369.18,-173 2369.18,-173 2369.18,-173 2415.81,-173 2415.81,-173"/>
<polygon fill="black" stroke="black" points="2415.81,-176.5 2425.81,-173 2415.81,-169.5 2415.81,-176.5"/>
</g>
<!-- FooterComponent  -->
<g id="node23" class="node">
<title>FooterComponent </title>
<polygon fill="#fb8072" stroke="black" points="2693.88,-252 2572.12,-252 2572.12,-216 2693.88,-216 2693.88,-252"/>
<text text-anchor="middle" x="2633" y="-229.8" font-family="Times,serif" font-size="14.00">FooterComponent </text>
</g>
<!-- ComponentsModule&#45;&gt;FooterComponent  -->
<g id="edge20" class="edge">
<title>ComponentsModule&#45;&gt;FooterComponent </title>
<path fill="none" stroke="black" stroke-dasharray="5,2" d="M2556.19,-175C2584.3,-175 2610.85,-175 2610.85,-175 2610.85,-175 2610.85,-205.98 2610.85,-205.98"/>
<polygon fill="black" stroke="black" points="2607.35,-205.98 2610.85,-215.98 2614.35,-205.98 2607.35,-205.98"/>
</g>
<!-- NavbarComponent  -->
<g id="node24" class="node">
<title>NavbarComponent </title>
<polygon fill="#fb8072" stroke="black" points="2554.03,-252 2427.97,-252 2427.97,-216 2554.03,-216 2554.03,-252"/>
<text text-anchor="middle" x="2491" y="-229.8" font-family="Times,serif" font-size="14.00">NavbarComponent </text>
</g>
<!-- ComponentsModule&#45;&gt;NavbarComponent  -->
<g id="edge21" class="edge">
<title>ComponentsModule&#45;&gt;NavbarComponent </title>
<path fill="none" stroke="black" stroke-dasharray="5,2" d="M2491,-187.11C2491,-187.11 2491,-205.99 2491,-205.99"/>
<polygon fill="black" stroke="black" points="2487.5,-205.99 2491,-215.99 2494.5,-205.99 2487.5,-205.99"/>
</g>
<!-- SidebarComponent  -->
<g id="node25" class="node">
<title>SidebarComponent </title>
<polygon fill="#fb8072" stroke="black" points="2409.6,-252 2282.4,-252 2282.4,-216 2409.6,-216 2409.6,-252"/>
<text text-anchor="middle" x="2346" y="-229.8" font-family="Times,serif" font-size="14.00">SidebarComponent </text>
</g>
<!-- ComponentsModule&#45;&gt;SidebarComponent  -->
<g id="edge22" class="edge">
<title>ComponentsModule&#45;&gt;SidebarComponent </title>
<path fill="none" stroke="black" stroke-dasharray="5,2" d="M2425.4,-180C2380.32,-180 2328.57,-180 2328.57,-180 2328.57,-180 2328.57,-205.72 2328.57,-205.72"/>
<polygon fill="black" stroke="black" points="2325.07,-205.72 2328.57,-215.72 2332.07,-205.72 2325.07,-205.72"/>
</g>
</g>
</svg>
