<?xml version="1.0" encoding="UTF-8" standalone="no"?>
<!DOCTYPE svg PUBLIC "-//W3C//DTD SVG 1.1//EN"
 "http://www.w3.org/Graphics/SVG/1.1/DTD/svg11.dtd">
<!-- Generated by graphviz version 2.47.0 (20210316.0004)
 -->
<!-- Title: dependencies Pages: 1 -->
<svg width="3045pt" height="284pt"
 viewBox="0.00 0.00 3045.00 284.00" xmlns="http://www.w3.org/2000/svg" xmlns:xlink="http://www.w3.org/1999/xlink">
<g id="graph0" class="graph" transform="scale(1 1) rotate(0) translate(4 280)">
<title>dependencies</title>
<polygon fill="white" stroke="transparent" points="-4,4 -4,-280 3041,-280 3041,4 -4,4"/>
<text text-anchor="start" x="1497.51" y="-42.4" font-family="sans-serif" font-weight="bold" font-size="14.00">Legend</text>
<polygon fill="#ffffb3" stroke="transparent" points="1284.5,-10 1284.5,-30 1304.5,-30 1304.5,-10 1284.5,-10"/>
<text text-anchor="start" x="1308.13" y="-15.4" font-family="sans-serif" font-size="14.00"> &#160;Declarations</text>
<polygon fill="#8dd3c7" stroke="transparent" points="1397.5,-10 1397.5,-30 1417.5,-30 1417.5,-10 1397.5,-10"/>
<text text-anchor="start" x="1421.23" y="-15.4" font-family="sans-serif" font-size="14.00"> &#160;Module</text>
<polygon fill="#80b1d3" stroke="transparent" points="1483.5,-10 1483.5,-30 1503.5,-30 1503.5,-10 1483.5,-10"/>
<text text-anchor="start" x="1507.28" y="-15.4" font-family="sans-serif" font-size="14.00"> &#160;Bootstrap</text>
<polygon fill="#fdb462" stroke="transparent" points="1580.5,-10 1580.5,-30 1600.5,-30 1600.5,-10 1580.5,-10"/>
<text text-anchor="start" x="1604.17" y="-15.4" font-family="sans-serif" font-size="14.00"> &#160;Providers</text>
<polygon fill="#fb8072" stroke="transparent" points="1676.5,-10 1676.5,-30 1696.5,-30 1696.5,-10 1676.5,-10"/>
<text text-anchor="start" x="1700.23" y="-15.4" font-family="sans-serif" font-size="14.00"> &#160;Exports</text>
<g id="clust1" class="cluster">
<title>cluster_AdminLayoutModule</title>
<polygon fill="none" stroke="black" stroke-dasharray="1,5" points="8,-70 8,-195 1362,-195 1362,-70 8,-70"/>
</g>
<g id="clust2" class="cluster">
<title>cluster_AdminLayoutModule_declarations</title>
<polygon fill="none" stroke="black" points="16,-78 16,-130 1354,-130 1354,-78 16,-78"/>
</g>
<g id="clust16" class="cluster">
<title>cluster_AppModule</title>
<polygon fill="none" stroke="black" stroke-dasharray="1,5" points="1370,-70 1370,-268 2425,-268 2425,-70 1370,-70"/>
</g>
<g id="clust17" class="cluster">
<title>cluster_AppModule_declarations</title>
<polygon fill="none" stroke="black" points="1672,-78 1672,-130 2417,-130 2417,-78 1672,-78"/>
</g>
<g id="clust23" class="cluster">
<title>cluster_AppModule_imports</title>
<polygon fill="none" stroke="black" points="1520,-78 1520,-130 1664,-130 1664,-78 1520,-78"/>
</g>
<g id="clust25" class="cluster">
<title>cluster_AppModule_bootstrap</title>
<polygon fill="none" stroke="black" points="1821,-208 1821,-260 1945,-260 1945,-208 1821,-208"/>
</g>
<g id="clust26" class="cluster">
<title>cluster_AppModule_providers</title>
<polygon fill="none" stroke="black" points="1378,-78 1378,-130 1512,-130 1512,-78 1378,-78"/>
</g>
<g id="clust33" class="cluster">
<title>cluster_AuthLayoutModule</title>
<polygon fill="none" stroke="black" stroke-dasharray="1,5" points="2433,-70 2433,-195 2577,-195 2577,-70 2433,-70"/>
</g>
<g id="clust34" class="cluster">
<title>cluster_AuthLayoutModule_declarations</title>
<polygon fill="none" stroke="black" points="2448,-78 2448,-130 2562,-130 2562,-78 2448,-78"/>
</g>
<g id="clust40" class="cluster">
<title>cluster_ComponentsModule</title>
<polygon fill="none" stroke="black" stroke-dasharray="1,5" points="2585,-70 2585,-268 3029,-268 3029,-70 2585,-70"/>
</g>
<g id="clust41" class="cluster">
<title>cluster_ComponentsModule_declarations</title>
<polygon fill="none" stroke="black" points="2599,-78 2599,-130 3015,-130 3015,-78 2599,-78"/>
</g>
<g id="clust46" class="cluster">
<title>cluster_ComponentsModule_exports</title>
<polygon fill="none" stroke="black" points="2593,-208 2593,-260 3021,-260 3021,-208 2593,-208"/>
</g>
<!-- ClinicComponent -->
<g id="node1" class="node">
<title>ClinicComponent</title>
<polygon fill="#ffffb3" stroke="black" points="1345.56,-122 1230.44,-122 1230.44,-86 1345.56,-86 1345.56,-122"/>
<text text-anchor="middle" x="1288" y="-99.8" font-family="Times,serif" font-size="14.00">ClinicComponent</text>
</g>
<!-- AdminLayoutModule -->
<g id="node10" class="node">
<title>AdminLayoutModule</title>
<polygon fill="#8dd3c7" stroke="black" points="746.1,-187 743.1,-191 722.1,-191 719.1,-187 607.9,-187 607.9,-151 746.1,-151 746.1,-187"/>
<text text-anchor="middle" x="677" y="-164.8" font-family="Times,serif" font-size="14.00">AdminLayoutModule</text>
</g>
<!-- ClinicComponent&#45;&gt;AdminLayoutModule -->
<g id="edge1" class="edge">
<title>ClinicComponent&#45;&gt;AdminLayoutModule</title>
<path fill="none" stroke="black" d="M1288,-122.11C1288,-141.34 1288,-169 1288,-169 1288,-169 756.2,-169 756.2,-169"/>
<polygon fill="black" stroke="black" points="756.2,-165.5 746.2,-169 756.2,-172.5 756.2,-165.5"/>
</g>
<!-- ClinicsComponent -->
<g id="node2" class="node">
<title>ClinicsComponent</title>
<polygon fill="#ffffb3" stroke="black" points="1212.5,-122 1091.5,-122 1091.5,-86 1212.5,-86 1212.5,-122"/>
<text text-anchor="middle" x="1152" y="-99.8" font-family="Times,serif" font-size="14.00">ClinicsComponent</text>
</g>
<!-- ClinicsComponent&#45;&gt;AdminLayoutModule -->
<g id="edge2" class="edge">
<title>ClinicsComponent&#45;&gt;AdminLayoutModule</title>
<path fill="none" stroke="black" d="M1152,-122.3C1152,-140.27 1152,-165 1152,-165 1152,-165 756.07,-165 756.07,-165"/>
<polygon fill="black" stroke="black" points="756.07,-161.5 746.07,-165 756.07,-168.5 756.07,-161.5"/>
</g>
<!-- DashboardComponent -->
<g id="node3" class="node">
<title>DashboardComponent</title>
<polygon fill="#ffffb3" stroke="black" points="1073.97,-122 932.03,-122 932.03,-86 1073.97,-86 1073.97,-122"/>
<text text-anchor="middle" x="1003" y="-99.8" font-family="Times,serif" font-size="14.00">DashboardComponent</text>
</g>
<!-- DashboardComponent&#45;&gt;AdminLayoutModule -->
<g id="edge3" class="edge">
<title>DashboardComponent&#45;&gt;AdminLayoutModule</title>
<path fill="none" stroke="black" d="M1003,-122.03C1003,-138.4 1003,-160 1003,-160 1003,-160 756.14,-160 756.14,-160"/>
<polygon fill="black" stroke="black" points="756.14,-156.5 746.14,-160 756.14,-163.5 756.14,-156.5"/>
</g>
<!-- MedicalsheetComponent -->
<g id="node4" class="node">
<title>MedicalsheetComponent</title>
<polygon fill="#ffffb3" stroke="black" points="913.97,-122 758.03,-122 758.03,-86 913.97,-86 913.97,-122"/>
<text text-anchor="middle" x="836" y="-99.8" font-family="Times,serif" font-size="14.00">MedicalsheetComponent</text>
</g>
<!-- MedicalsheetComponent&#45;&gt;AdminLayoutModule -->
<g id="edge4" class="edge">
<title>MedicalsheetComponent&#45;&gt;AdminLayoutModule</title>
<path fill="none" stroke="black" d="M836,-122.19C836,-137.18 836,-156 836,-156 836,-156 756.28,-156 756.28,-156"/>
<polygon fill="black" stroke="black" points="756.28,-152.5 746.28,-156 756.28,-159.5 756.28,-152.5"/>
</g>
<!-- PatientsComponent -->
<g id="node5" class="node">
<title>PatientsComponent</title>
<polygon fill="#ffffb3" stroke="black" points="739.66,-122 614.34,-122 614.34,-86 739.66,-86 739.66,-122"/>
<text text-anchor="middle" x="677" y="-99.8" font-family="Times,serif" font-size="14.00">PatientsComponent</text>
</g>
<!-- PatientsComponent&#45;&gt;AdminLayoutModule -->
<g id="edge5" class="edge">
<title>PatientsComponent&#45;&gt;AdminLayoutModule</title>
<path fill="none" stroke="black" d="M677,-122.11C677,-122.11 677,-140.99 677,-140.99"/>
<polygon fill="black" stroke="black" points="673.5,-140.99 677,-150.99 680.5,-140.99 673.5,-140.99"/>
</g>
<!-- ReportsComponent -->
<g id="node6" class="node">
<title>ReportsComponent</title>
<polygon fill="#ffffb3" stroke="black" points="596.38,-122 471.62,-122 471.62,-86 596.38,-86 596.38,-122"/>
<text text-anchor="middle" x="534" y="-99.8" font-family="Times,serif" font-size="14.00">ReportsComponent</text>
</g>
<!-- ReportsComponent&#45;&gt;AdminLayoutModule -->
<g id="edge6" class="edge">
<title>ReportsComponent&#45;&gt;AdminLayoutModule</title>
<path fill="none" stroke="black" d="M534,-122.01C534,-138.05 534,-159 534,-159 534,-159 597.59,-159 597.59,-159"/>
<polygon fill="black" stroke="black" points="597.59,-162.5 607.59,-159 597.59,-155.5 597.59,-162.5"/>
</g>
<!-- SpecialistsComponent -->
<g id="node7" class="node">
<title>SpecialistsComponent</title>
<polygon fill="#ffffb3" stroke="black" points="453.71,-122 312.29,-122 312.29,-86 453.71,-86 453.71,-122"/>
<text text-anchor="middle" x="383" y="-99.8" font-family="Times,serif" font-size="14.00">SpecialistsComponent</text>
</g>
<!-- SpecialistsComponent&#45;&gt;AdminLayoutModule -->
<g id="edge7" class="edge">
<title>SpecialistsComponent&#45;&gt;AdminLayoutModule</title>
<path fill="none" stroke="black" d="M383,-122.27C383,-140.56 383,-166 383,-166 383,-166 597.7,-166 597.7,-166"/>
<polygon fill="black" stroke="black" points="597.7,-169.5 607.7,-166 597.7,-162.5 597.7,-169.5"/>
</g>
<!-- TreatmentsComponent -->
<g id="node8" class="node">
<title>TreatmentsComponent</title>
<polygon fill="#ffffb3" stroke="black" points="294.31,-122 149.69,-122 149.69,-86 294.31,-86 294.31,-122"/>
<text text-anchor="middle" x="222" y="-99.8" font-family="Times,serif" font-size="14.00">TreatmentsComponent</text>
</g>
<!-- TreatmentsComponent&#45;&gt;AdminLayoutModule -->
<g id="edge8" class="edge">
<title>TreatmentsComponent&#45;&gt;AdminLayoutModule</title>
<path fill="none" stroke="black" d="M222,-122.13C222,-142.57 222,-173 222,-173 222,-173 597.9,-173 597.9,-173"/>
<polygon fill="black" stroke="black" points="597.9,-176.5 607.9,-173 597.9,-169.5 597.9,-176.5"/>
</g>
<!-- UserComponent -->
<g id="node9" class="node">
<title>UserComponent</title>
<polygon fill="#ffffb3" stroke="black" points="131.76,-122 24.24,-122 24.24,-86 131.76,-86 131.76,-122"/>
<text text-anchor="middle" x="78" y="-99.8" font-family="Times,serif" font-size="14.00">UserComponent</text>
</g>
<!-- UserComponent&#45;&gt;AdminLayoutModule -->
<g id="edge9" class="edge">
<title>UserComponent&#45;&gt;AdminLayoutModule</title>
<path fill="none" stroke="black" d="M78,-122.01C78,-144.49 78,-180 78,-180 78,-180 597.7,-180 597.7,-180"/>
<polygon fill="black" stroke="black" points="597.7,-183.5 607.7,-180 597.7,-176.5 597.7,-183.5"/>
</g>
<!-- AdminLayoutComponent -->
<g id="node11" class="node">
<title>AdminLayoutComponent</title>
<polygon fill="#ffffb3" stroke="black" points="2408.88,-122 2249.12,-122 2249.12,-86 2408.88,-86 2408.88,-122"/>
<text text-anchor="middle" x="2329" y="-99.8" font-family="Times,serif" font-size="14.00">AdminLayoutComponent</text>
</g>
<!-- AppModule -->
<g id="node16" class="node">
<title>AppModule</title>
<polygon fill="#8dd3c7" stroke="black" points="1924.66,-187 1921.66,-191 1900.66,-191 1897.66,-187 1841.34,-187 1841.34,-151 1924.66,-151 1924.66,-187"/>
<text text-anchor="middle" x="1883" y="-164.8" font-family="Times,serif" font-size="14.00">AppModule</text>
</g>
<!-- AdminLayoutComponent&#45;&gt;AppModule -->
<g id="edge10" class="edge">
<title>AdminLayoutComponent&#45;&gt;AppModule</title>
<path fill="none" stroke="black" d="M2329,-122.29C2329,-144.21 2329,-178 2329,-178 2329,-178 1934.96,-178 1934.96,-178"/>
<polygon fill="black" stroke="black" points="1934.96,-174.5 1924.96,-178 1934.96,-181.5 1934.96,-174.5"/>
</g>
<!-- AppComponent -->
<g id="node12" class="node">
<title>AppComponent</title>
<polygon fill="#ffffb3" stroke="black" points="2230.94,-122 2125.06,-122 2125.06,-86 2230.94,-86 2230.94,-122"/>
<text text-anchor="middle" x="2178" y="-99.8" font-family="Times,serif" font-size="14.00">AppComponent</text>
</g>
<!-- AppComponent&#45;&gt;AppModule -->
<g id="edge11" class="edge">
<title>AppComponent&#45;&gt;AppModule</title>
<path fill="none" stroke="black" d="M2178,-122.11C2178,-141.34 2178,-169 2178,-169 2178,-169 1934.95,-169 1934.95,-169"/>
<polygon fill="black" stroke="black" points="1934.95,-165.5 1924.95,-169 1934.95,-172.5 1934.95,-165.5"/>
</g>
<!-- AuthLayoutComponent -->
<g id="node13" class="node">
<title>AuthLayoutComponent</title>
<polygon fill="#ffffb3" stroke="black" points="2107.49,-122 1958.51,-122 1958.51,-86 2107.49,-86 2107.49,-122"/>
<text text-anchor="middle" x="2033" y="-99.8" font-family="Times,serif" font-size="14.00">AuthLayoutComponent</text>
</g>
<!-- AuthLayoutComponent&#45;&gt;AppModule -->
<g id="edge12" class="edge">
<title>AuthLayoutComponent&#45;&gt;AppModule</title>
<path fill="none" stroke="black" d="M2033,-122.03C2033,-138.4 2033,-160 2033,-160 2033,-160 1934.78,-160 1934.78,-160"/>
<polygon fill="black" stroke="black" points="1934.78,-156.5 1924.78,-160 1934.78,-163.5 1934.78,-156.5"/>
</g>
<!-- LoginComponent -->
<g id="node14" class="node">
<title>LoginComponent</title>
<polygon fill="#ffffb3" stroke="black" points="1940.28,-122 1825.72,-122 1825.72,-86 1940.28,-86 1940.28,-122"/>
<text text-anchor="middle" x="1883" y="-99.8" font-family="Times,serif" font-size="14.00">LoginComponent</text>
</g>
<!-- LoginComponent&#45;&gt;AppModule -->
<g id="edge13" class="edge">
<title>LoginComponent&#45;&gt;AppModule</title>
<path fill="none" stroke="black" d="M1883,-122.11C1883,-122.11 1883,-140.99 1883,-140.99"/>
<polygon fill="black" stroke="black" points="1879.5,-140.99 1883,-150.99 1886.5,-140.99 1879.5,-140.99"/>
</g>
<!-- RegisterComponent -->
<g id="node15" class="node">
<title>RegisterComponent</title>
<polygon fill="#ffffb3" stroke="black" points="1807.98,-122 1680.02,-122 1680.02,-86 1807.98,-86 1807.98,-122"/>
<text text-anchor="middle" x="1744" y="-99.8" font-family="Times,serif" font-size="14.00">RegisterComponent</text>
</g>
<!-- RegisterComponent&#45;&gt;AppModule -->
<g id="edge14" class="edge">
<title>RegisterComponent&#45;&gt;AppModule</title>
<path fill="none" stroke="black" d="M1744,-122.03C1744,-142.77 1744,-174 1744,-174 1744,-174 1831.3,-174 1831.3,-174"/>
<polygon fill="black" stroke="black" points="1831.3,-177.5 1841.3,-174 1831.3,-170.5 1831.3,-177.5"/>
</g>
<!-- AppComponent  -->
<g id="node18" class="node">
<title>AppComponent </title>
<polygon fill="#80b1d3" stroke="black" points="1937.44,-252 1828.56,-252 1828.56,-216 1937.44,-216 1937.44,-252"/>
<text text-anchor="middle" x="1883" y="-229.8" font-family="Times,serif" font-size="14.00">AppComponent </text>
</g>
<!-- AppModule&#45;&gt;AppComponent  -->
<g id="edge16" class="edge">
<title>AppModule&#45;&gt;AppComponent </title>
<path fill="none" stroke="black" stroke-dasharray="1,5" d="M1883,-187.11C1883,-187.11 1883,-205.99 1883,-205.99"/>
<polygon fill="black" stroke="black" points="1879.5,-205.99 1883,-215.99 1886.5,-205.99 1879.5,-205.99"/>
</g>
<!-- AppRoutingModule -->
<g id="node17" class="node">
<title>AppRoutingModule</title>
<polygon fill="#8dd3c7" stroke="black" points="1656.27,-122 1653.27,-126 1632.27,-126 1629.27,-122 1527.73,-122 1527.73,-86 1656.27,-86 1656.27,-122"/>
<text text-anchor="middle" x="1592" y="-99.8" font-family="Times,serif" font-size="14.00">AppRoutingModule</text>
</g>
<!-- AppRoutingModule&#45;&gt;AppModule -->
<g id="edge15" class="edge">
<title>AppRoutingModule&#45;&gt;AppModule</title>
<path fill="none" stroke="black" d="M1592,-122.29C1592,-144.21 1592,-178 1592,-178 1592,-178 1831.31,-178 1831.31,-178"/>
<polygon fill="black" stroke="black" points="1831.31,-181.5 1841.31,-178 1831.31,-174.5 1831.31,-181.5"/>
</g>
<!-- AuthService -->
<g id="node19" class="node">
<title>AuthService</title>
<ellipse fill="#fdb462" stroke="black" cx="1445" cy="-104" rx="59.11" ry="18"/>
<text text-anchor="middle" x="1445" y="-99.8" font-family="Times,serif" font-size="14.00">AuthService</text>
</g>
<!-- AuthService&#45;&gt;AppModule -->
<g id="edge17" class="edge">
<title>AuthService&#45;&gt;AppModule</title>
<path fill="none" stroke="black" d="M1445,-122.32C1445,-145.66 1445,-183 1445,-183 1445,-183 1831,-183 1831,-183"/>
<polygon fill="black" stroke="black" points="1831,-186.5 1841,-183 1831,-179.5 1831,-186.5"/>
</g>
<!-- RtlComponent -->
<g id="node20" class="node">
<title>RtlComponent</title>
<polygon fill="#ffffb3" stroke="black" points="2554.45,-122 2455.55,-122 2455.55,-86 2554.45,-86 2554.45,-122"/>
<text text-anchor="middle" x="2505" y="-99.8" font-family="Times,serif" font-size="14.00">RtlComponent</text>
</g>
<!-- AuthLayoutModule -->
<g id="node21" class="node">
<title>AuthLayoutModule</title>
<polygon fill="#8dd3c7" stroke="black" points="2568.7,-187 2565.7,-191 2544.7,-191 2541.7,-187 2441.3,-187 2441.3,-151 2568.7,-151 2568.7,-187"/>
<text text-anchor="middle" x="2505" y="-164.8" font-family="Times,serif" font-size="14.00">AuthLayoutModule</text>
</g>
<!-- RtlComponent&#45;&gt;AuthLayoutModule -->
<g id="edge18" class="edge">
<title>RtlComponent&#45;&gt;AuthLayoutModule</title>
<path fill="none" stroke="black" d="M2505,-122.11C2505,-122.11 2505,-140.99 2505,-140.99"/>
<polygon fill="black" stroke="black" points="2501.5,-140.99 2505,-150.99 2508.5,-140.99 2501.5,-140.99"/>
</g>
<!-- FooterComponent -->
<g id="node22" class="node">
<title>FooterComponent</title>
<polygon fill="#ffffb3" stroke="black" points="3006.88,-122 2889.12,-122 2889.12,-86 3006.88,-86 3006.88,-122"/>
<text text-anchor="middle" x="2948" y="-99.8" font-family="Times,serif" font-size="14.00">FooterComponent</text>
</g>
<!-- ComponentsModule -->
<g id="node25" class="node">
<title>ComponentsModule</title>
<polygon fill="#8dd3c7" stroke="black" points="2875.33,-187 2872.33,-191 2851.33,-191 2848.33,-187 2744.67,-187 2744.67,-151 2875.33,-151 2875.33,-187"/>
<text text-anchor="middle" x="2810" y="-164.8" font-family="Times,serif" font-size="14.00">ComponentsModule</text>
</g>
<!-- FooterComponent&#45;&gt;ComponentsModule -->
<g id="edge19" class="edge">
<title>FooterComponent&#45;&gt;ComponentsModule</title>
<path fill="none" stroke="black" d="M2968.4,-122.02C2968.4,-139.37 2968.4,-163 2968.4,-163 2968.4,-163 2885.34,-163 2885.34,-163"/>
<polygon fill="black" stroke="black" points="2885.34,-159.5 2875.34,-163 2885.34,-166.5 2885.34,-159.5"/>
</g>
<!-- NavbarComponent -->
<g id="node23" class="node">
<title>NavbarComponent</title>
<polygon fill="#ffffb3" stroke="black" points="2871.03,-122 2748.97,-122 2748.97,-86 2871.03,-86 2871.03,-122"/>
<text text-anchor="middle" x="2810" y="-99.8" font-family="Times,serif" font-size="14.00">NavbarComponent</text>
</g>
<!-- NavbarComponent&#45;&gt;ComponentsModule -->
<g id="edge20" class="edge">
<title>NavbarComponent&#45;&gt;ComponentsModule</title>
<path fill="none" stroke="black" d="M2810,-122.11C2810,-122.11 2810,-140.99 2810,-140.99"/>
<polygon fill="black" stroke="black" points="2806.5,-140.99 2810,-150.99 2813.5,-140.99 2806.5,-140.99"/>
</g>
<!-- SidebarComponent -->
<g id="node24" class="node">
<title>SidebarComponent</title>
<polygon fill="#ffffb3" stroke="black" points="2731.1,-122 2606.9,-122 2606.9,-86 2731.1,-86 2731.1,-122"/>
<text text-anchor="middle" x="2669" y="-99.8" font-family="Times,serif" font-size="14.00">SidebarComponent</text>
</g>
<!-- SidebarComponent&#45;&gt;ComponentsModule -->
<g id="edge21" class="edge">
<title>SidebarComponent&#45;&gt;ComponentsModule</title>
<path fill="none" stroke="black" d="M2688.18,-122.02C2688.18,-139.37 2688.18,-163 2688.18,-163 2688.18,-163 2734.81,-163 2734.81,-163"/>
<polygon fill="black" stroke="black" points="2734.81,-166.5 2744.81,-163 2734.81,-159.5 2734.81,-166.5"/>
</g>
<!-- FooterComponent  -->
<g id="node26" class="node">
<title>FooterComponent </title>
<polygon fill="#fb8072" stroke="black" points="3012.88,-252 2891.12,-252 2891.12,-216 3012.88,-216 3012.88,-252"/>
<text text-anchor="middle" x="2952" y="-229.8" font-family="Times,serif" font-size="14.00">FooterComponent </text>
</g>
<!-- ComponentsModule&#45;&gt;FooterComponent  -->
<g id="edge22" class="edge">
<title>ComponentsModule&#45;&gt;FooterComponent </title>
<path fill="none" stroke="black" stroke-dasharray="5,2" d="M2875.19,-175C2903.3,-175 2929.85,-175 2929.85,-175 2929.85,-175 2929.85,-205.98 2929.85,-205.98"/>
<polygon fill="black" stroke="black" points="2926.35,-205.98 2929.85,-215.98 2933.35,-205.98 2926.35,-205.98"/>
</g>
<!-- NavbarComponent  -->
<g id="node27" class="node">
<title>NavbarComponent </title>
<polygon fill="#fb8072" stroke="black" points="2873.03,-252 2746.97,-252 2746.97,-216 2873.03,-216 2873.03,-252"/>
<text text-anchor="middle" x="2810" y="-229.8" font-family="Times,serif" font-size="14.00">NavbarComponent </text>
</g>
<!-- ComponentsModule&#45;&gt;NavbarComponent  -->
<g id="edge23" class="edge">
<title>ComponentsModule&#45;&gt;NavbarComponent </title>
<path fill="none" stroke="black" stroke-dasharray="5,2" d="M2810,-187.11C2810,-187.11 2810,-205.99 2810,-205.99"/>
<polygon fill="black" stroke="black" points="2806.5,-205.99 2810,-215.99 2813.5,-205.99 2806.5,-205.99"/>
</g>
<!-- SidebarComponent  -->
<g id="node28" class="node">
<title>SidebarComponent </title>
<polygon fill="#fb8072" stroke="black" points="2728.6,-252 2601.4,-252 2601.4,-216 2728.6,-216 2728.6,-252"/>
<text text-anchor="middle" x="2665" y="-229.8" font-family="Times,serif" font-size="14.00">SidebarComponent </text>
</g>
<!-- ComponentsModule&#45;&gt;SidebarComponent  -->
<g id="edge24" class="edge">
<title>ComponentsModule&#45;&gt;SidebarComponent </title>
<path fill="none" stroke="black" stroke-dasharray="5,2" d="M2744.4,-175C2699.32,-175 2647.57,-175 2647.57,-175 2647.57,-175 2647.57,-205.98 2647.57,-205.98"/>
<polygon fill="black" stroke="black" points="2644.07,-205.98 2647.57,-215.98 2651.07,-205.98 2644.07,-205.98"/>
</g>
</g>
</svg>
