<?xml version="1.0" encoding="UTF-8" standalone="no"?>
<!DOCTYPE svg PUBLIC "-//W3C//DTD SVG 1.1//EN"
 "http://www.w3.org/Graphics/SVG/1.1/DTD/svg11.dtd">
<!-- Generated by graphviz version 2.47.0 (20210316.0004)
 -->
<!-- Title: dependencies Pages: 1 -->
<svg width="1378pt" height="211pt"
 viewBox="0.00 0.00 1378.00 211.00" xmlns="http://www.w3.org/2000/svg" xmlns:xlink="http://www.w3.org/1999/xlink">
<g id="graph0" class="graph" transform="scale(1 1) rotate(0) translate(4 207)">
<title>dependencies</title>
<polygon fill="white" stroke="transparent" points="-4,4 -4,-207 1374,-207 1374,4 -4,4"/>
<text text-anchor="start" x="664.01" y="-42.4" font-family="sans-serif" font-weight="bold" font-size="14.00">Legend</text>
<polygon fill="#ffffb3" stroke="transparent" points="451,-10 451,-30 471,-30 471,-10 451,-10"/>
<text text-anchor="start" x="474.63" y="-15.4" font-family="sans-serif" font-size="14.00"> &#160;Declarations</text>
<polygon fill="#8dd3c7" stroke="transparent" points="564,-10 564,-30 584,-30 584,-10 564,-10"/>
<text text-anchor="start" x="587.73" y="-15.4" font-family="sans-serif" font-size="14.00"> &#160;Module</text>
<polygon fill="#80b1d3" stroke="transparent" points="650,-10 650,-30 670,-30 670,-10 650,-10"/>
<text text-anchor="start" x="673.78" y="-15.4" font-family="sans-serif" font-size="14.00"> &#160;Bootstrap</text>
<polygon fill="#fdb462" stroke="transparent" points="747,-10 747,-30 767,-30 767,-10 747,-10"/>
<text text-anchor="start" x="770.67" y="-15.4" font-family="sans-serif" font-size="14.00"> &#160;Providers</text>
<polygon fill="#fb8072" stroke="transparent" points="843,-10 843,-30 863,-30 863,-10 843,-10"/>
<text text-anchor="start" x="866.73" y="-15.4" font-family="sans-serif" font-size="14.00"> &#160;Exports</text>
<g id="clust1" class="cluster">
<title>cluster_AdminLayoutModule</title>
<polygon fill="none" stroke="black" stroke-dasharray="1,5" points="8,-70 8,-195 1362,-195 1362,-70 8,-70"/>
</g>
<g id="clust2" class="cluster">
<title>cluster_AdminLayoutModule_declarations</title>
<polygon fill="none" stroke="black" points="16,-78 16,-130 1354,-130 1354,-78 16,-78"/>
</g>
<!-- ClinicComponent -->
<g id="node1" class="node">
<title>ClinicComponent</title>
<polygon fill="#ffffb3" stroke="black" points="1345.56,-122 1230.44,-122 1230.44,-86 1345.56,-86 1345.56,-122"/>
<text text-anchor="middle" x="1288" y="-99.8" font-family="Times,serif" font-size="14.00">ClinicComponent</text>
</g>
<!-- AdminLayoutModule -->
<g id="node10" class="node">
<title>AdminLayoutModule</title>
<polygon fill="#8dd3c7" stroke="black" points="746.1,-187 743.1,-191 722.1,-191 719.1,-187 607.9,-187 607.9,-151 746.1,-151 746.1,-187"/>
<text text-anchor="middle" x="677" y="-164.8" font-family="Times,serif" font-size="14.00">AdminLayoutModule</text>
</g>
<!-- ClinicComponent&#45;&gt;AdminLayoutModule -->
<g id="edge1" class="edge">
<title>ClinicComponent&#45;&gt;AdminLayoutModule</title>
<path fill="none" stroke="black" d="M1288,-122.01C1288,-144.49 1288,-180 1288,-180 1288,-180 756.2,-180 756.2,-180"/>
<polygon fill="black" stroke="black" points="756.2,-176.5 746.2,-180 756.2,-183.5 756.2,-176.5"/>
</g>
<!-- ClinicsComponent -->
<g id="node2" class="node">
<title>ClinicsComponent</title>
<polygon fill="#ffffb3" stroke="black" points="1212.5,-122 1091.5,-122 1091.5,-86 1212.5,-86 1212.5,-122"/>
<text text-anchor="middle" x="1152" y="-99.8" font-family="Times,serif" font-size="14.00">ClinicsComponent</text>
</g>
<!-- ClinicsComponent&#45;&gt;AdminLayoutModule -->
<g id="edge2" class="edge">
<title>ClinicsComponent&#45;&gt;AdminLayoutModule</title>
<path fill="none" stroke="black" d="M1152,-122.13C1152,-142.57 1152,-173 1152,-173 1152,-173 756.07,-173 756.07,-173"/>
<polygon fill="black" stroke="black" points="756.07,-169.5 746.07,-173 756.07,-176.5 756.07,-169.5"/>
</g>
<!-- DashboardComponent -->
<g id="node3" class="node">
<title>DashboardComponent</title>
<polygon fill="#ffffb3" stroke="black" points="1073.97,-122 932.03,-122 932.03,-86 1073.97,-86 1073.97,-122"/>
<text text-anchor="middle" x="1003" y="-99.8" font-family="Times,serif" font-size="14.00">DashboardComponent</text>
</g>
<!-- DashboardComponent&#45;&gt;AdminLayoutModule -->
<g id="edge3" class="edge">
<title>DashboardComponent&#45;&gt;AdminLayoutModule</title>
<path fill="none" stroke="black" d="M1003,-122.27C1003,-140.56 1003,-166 1003,-166 1003,-166 756.14,-166 756.14,-166"/>
<polygon fill="black" stroke="black" points="756.14,-162.5 746.14,-166 756.14,-169.5 756.14,-162.5"/>
</g>
<!-- MedicalsheetComponent -->
<g id="node4" class="node">
<title>MedicalsheetComponent</title>
<polygon fill="#ffffb3" stroke="black" points="913.97,-122 758.03,-122 758.03,-86 913.97,-86 913.97,-122"/>
<text text-anchor="middle" x="836" y="-99.8" font-family="Times,serif" font-size="14.00">MedicalsheetComponent</text>
</g>
<!-- MedicalsheetComponent&#45;&gt;AdminLayoutModule -->
<g id="edge4" class="edge">
<title>MedicalsheetComponent&#45;&gt;AdminLayoutModule</title>
<path fill="none" stroke="black" d="M836,-122.01C836,-138.05 836,-159 836,-159 836,-159 756.28,-159 756.28,-159"/>
<polygon fill="black" stroke="black" points="756.28,-155.5 746.28,-159 756.28,-162.5 756.28,-155.5"/>
</g>
<!-- PatientsComponent -->
<g id="node5" class="node">
<title>PatientsComponent</title>
<polygon fill="#ffffb3" stroke="black" points="739.66,-122 614.34,-122 614.34,-86 739.66,-86 739.66,-122"/>
<text text-anchor="middle" x="677" y="-99.8" font-family="Times,serif" font-size="14.00">PatientsComponent</text>
</g>
<!-- PatientsComponent&#45;&gt;AdminLayoutModule -->
<g id="edge5" class="edge">
<title>PatientsComponent&#45;&gt;AdminLayoutModule</title>
<path fill="none" stroke="black" d="M677,-122.11C677,-122.11 677,-140.99 677,-140.99"/>
<polygon fill="black" stroke="black" points="673.5,-140.99 677,-150.99 680.5,-140.99 673.5,-140.99"/>
</g>
<!-- ReportsComponent -->
<g id="node6" class="node">
<title>ReportsComponent</title>
<polygon fill="#ffffb3" stroke="black" points="596.38,-122 471.62,-122 471.62,-86 596.38,-86 596.38,-122"/>
<text text-anchor="middle" x="534" y="-99.8" font-family="Times,serif" font-size="14.00">ReportsComponent</text>
</g>
<!-- ReportsComponent&#45;&gt;AdminLayoutModule -->
<g id="edge6" class="edge">
<title>ReportsComponent&#45;&gt;AdminLayoutModule</title>
<path fill="none" stroke="black" d="M534,-122.01C534,-138.05 534,-159 534,-159 534,-159 597.59,-159 597.59,-159"/>
<polygon fill="black" stroke="black" points="597.59,-162.5 607.59,-159 597.59,-155.5 597.59,-162.5"/>
</g>
<!-- SpecialistsComponent -->
<g id="node7" class="node">
<title>SpecialistsComponent</title>
<polygon fill="#ffffb3" stroke="black" points="453.71,-122 312.29,-122 312.29,-86 453.71,-86 453.71,-122"/>
<text text-anchor="middle" x="383" y="-99.8" font-family="Times,serif" font-size="14.00">SpecialistsComponent</text>
</g>
<!-- SpecialistsComponent&#45;&gt;AdminLayoutModule -->
<g id="edge7" class="edge">
<title>SpecialistsComponent&#45;&gt;AdminLayoutModule</title>
<path fill="none" stroke="black" d="M383,-122.27C383,-140.56 383,-166 383,-166 383,-166 597.7,-166 597.7,-166"/>
<polygon fill="black" stroke="black" points="597.7,-169.5 607.7,-166 597.7,-162.5 597.7,-169.5"/>
</g>
<!-- TreatmentsComponent -->
<g id="node8" class="node">
<title>TreatmentsComponent</title>
<polygon fill="#ffffb3" stroke="black" points="294.31,-122 149.69,-122 149.69,-86 294.31,-86 294.31,-122"/>
<text text-anchor="middle" x="222" y="-99.8" font-family="Times,serif" font-size="14.00">TreatmentsComponent</text>
</g>
<!-- TreatmentsComponent&#45;&gt;AdminLayoutModule -->
<g id="edge8" class="edge">
<title>TreatmentsComponent&#45;&gt;AdminLayoutModule</title>
<path fill="none" stroke="black" d="M222,-122.13C222,-142.57 222,-173 222,-173 222,-173 597.9,-173 597.9,-173"/>
<polygon fill="black" stroke="black" points="597.9,-176.5 607.9,-173 597.9,-169.5 597.9,-176.5"/>
</g>
<!-- UserComponent -->
<g id="node9" class="node">
<title>UserComponent</title>
<polygon fill="#ffffb3" stroke="black" points="131.76,-122 24.24,-122 24.24,-86 131.76,-86 131.76,-122"/>
<text text-anchor="middle" x="78" y="-99.8" font-family="Times,serif" font-size="14.00">UserComponent</text>
</g>
<!-- UserComponent&#45;&gt;AdminLayoutModule -->
<g id="edge9" class="edge">
<title>UserComponent&#45;&gt;AdminLayoutModule</title>
<path fill="none" stroke="black" d="M78,-122.01C78,-144.49 78,-180 78,-180 78,-180 597.7,-180 597.7,-180"/>
<polygon fill="black" stroke="black" points="597.7,-183.5 607.7,-180 597.7,-176.5 597.7,-183.5"/>
</g>
</g>
</svg>
